<?xml version="1.0" encoding="iso-8859-1"?>
<!-- Generator: Adobe Illustrator 19.0.0, SVG Export Plug-In . SVG Version: 6.00 Build 0)  -->
<svg version="1.1" id="Layer_1" xmlns="http://www.w3.org/2000/svg" xmlns:xlink="http://www.w3.org/1999/xlink" x="0px" y="0px"
	 viewBox="0 0 247.652 247.652" style="enable-background:new 0 0 247.652 247.652;" xml:space="preserve">
<g>
	<path style="fill:#FFD155;" d="M208.826,228.517V111.039c0-2.639-0.897-5.199-2.543-7.261l-73.362-91.9
		c-4.659-5.837-13.532-5.837-18.192,0l-73.362,91.9c-1.646,2.062-2.543,4.622-2.543,7.261v117.478
		c0,6.426,5.209,11.635,11.635,11.635h146.73C203.617,240.152,208.826,234.943,208.826,228.517z"/>
	<rect x="61.188" y="170.161" style="fill:#F59D00;" width="48.394" height="48.394"/>
	<g>
		<path style="fill:#E87E04;" d="M212.144,99.099l-73.361-91.9c-7.656-9.59-22.246-9.606-29.914,0L35.508,99.098
			c-2.696,3.377-4.182,7.618-4.182,11.94v117.478c0,10.551,8.584,19.135,19.135,19.135h146.73c10.551,0,19.135-8.584,19.135-19.135
			V111.039C216.326,106.716,214.841,102.476,212.144,99.099z M201.326,228.517c0,2.28-1.855,4.135-4.135,4.135H50.461
			c-2.28,0-4.135-1.855-4.135-4.135V111.039c0-0.935,0.321-1.851,0.904-2.581l73.361-91.9c1.659-2.079,4.81-2.078,6.469,0
			l73.362,91.9c0.582,0.73,0.903,1.646,0.903,2.581V228.517z"/>
		<path style="fill:#E87E04;" d="M109.583,162.661H61.188c-4.143,0-7.5,3.358-7.5,7.5v48.394c0,4.142,3.357,7.5,7.5,7.5h48.395
			c4.143,0,7.5-3.358,7.5-7.5v-48.394C117.083,166.019,113.725,162.661,109.583,162.661z M102.083,211.055H68.688v-33.394h33.395
			V211.055z"/>
		<path style="fill:#E87E04;" d="M186.464,162.661h-55.259c-4.143,0-7.5,3.358-7.5,7.5s3.357,7.5,7.5,7.5h55.259
			c4.143,0,7.5-3.358,7.5-7.5S190.606,162.661,186.464,162.661z"/>
		<path style="fill:#E87E04;" d="M186.464,186.858h-55.259c-4.143,0-7.5,3.358-7.5,7.5s3.357,7.5,7.5,7.5h55.259
			c4.143,0,7.5-3.358,7.5-7.5S190.606,186.858,186.464,186.858z"/>
		<path style="fill:#E87E04;" d="M186.464,211.055h-55.259c-4.143,0-7.5,3.358-7.5,7.5s3.357,7.5,7.5,7.5h55.259
			c4.143,0,7.5-3.358,7.5-7.5S190.606,211.055,186.464,211.055z"/>
		<path style="fill:#E87E04;" d="M157.133,107.687l1.794,2.496c2.523,3.501,7.887,2.965,9.658-0.968l8.526-18.884
			c1.771-3.933-1.369-8.32-5.663-7.887l-20.624,2.07c-4.293,0.422-6.507,5.344-3.995,8.845l1.548,2.152l-29.241,19.064
			l-18.414-14.787c-2.877-2.309-7.003-2.184-9.733,0.291l-34.837,31.577c-3.068,2.782-3.302,7.525-0.52,10.594
			c2.785,3.071,7.528,3.299,10.594,0.52l30.095-27.278l17.661,14.183c2.529,2.03,6.076,2.206,8.792,0.435l34.082-22.22
			C156.952,107.826,157.04,107.754,157.133,107.687z"/>
	</g>
</g>
<g>
</g>
<g>
</g>
<g>
</g>
<g>
</g>
<g>
</g>
<g>
</g>
<g>
</g>
<g>
</g>
<g>
</g>
<g>
</g>
<g>
</g>
<g>
</g>
<g>
</g>
<g>
</g>
<g>
</g>
</svg>
