<?xml version="1.0" encoding="UTF-8" standalone="no"?>
<!-- Generator: Adobe Illustrator 19.0.0, SVG Export Plug-In . SVG Version: 6.00 Build 0)  -->

<svg
   xmlns:dc="http://purl.org/dc/elements/1.1/"
   xmlns:cc="http://creativecommons.org/ns#"
   xmlns:rdf="http://www.w3.org/1999/02/22-rdf-syntax-ns#"
   xmlns:svg="http://www.w3.org/2000/svg"
   xmlns="http://www.w3.org/2000/svg"
   xmlns:sodipodi="http://sodipodi.sourceforge.net/DTD/sodipodi-0.dtd"
   xmlns:inkscape="http://www.inkscape.org/namespaces/inkscape"
   version="1.1"
   id="Layer_1"
   x="0px"
   y="0px"
   viewBox="0 0 377.95276 377.95276"
   xml:space="preserve"
   sodipodi:docname="loading.svg"
   inkscape:version="0.92.2 (5c3e80d, 2017-08-06)"
   width="377.95276"
   height="377.95276"><metadata
     id="metadata61"><rdf:RDF><cc:Work
         rdf:about=""><dc:format>image/svg+xml</dc:format><dc:type
           rdf:resource="http://purl.org/dc/dcmitype/StillImage" /><dc:title /></cc:Work></rdf:RDF></metadata><defs
     id="defs59" /><sodipodi:namedview
     pagecolor="#ffffff"
     bordercolor="#666666"
     borderopacity="1"
     objecttolerance="10"
     gridtolerance="10"
     guidetolerance="10"
     inkscape:pageopacity="0"
     inkscape:pageshadow="2"
     inkscape:window-width="1600"
     inkscape:window-height="837"
     id="namedview57"
     showgrid="false"
     inkscape:zoom="0.47580645"
     inkscape:cx="-116.64407"
     inkscape:cy="247.99999"
     inkscape:window-x="-4"
     inkscape:window-y="-4"
     inkscape:window-maximized="1"
     inkscape:current-layer="Layer_1" /><g
     id="g850"
     transform="scale(0.76200152)"><path
       id="path2"
       d="M 248,92 C 234.4,92 224,81.6 224,68 V 24 c 0,-13.6 10.4,-24 24,-24 13.6,0 24,10.4 24,24 v 44 c 0,12.8 -10.4,24 -24,24 z"
       style="fill:#76ffe5"
       inkscape:connector-curvature="0" /><path
       id="path4"
       d="m 248,496 c -13.6,0 -24,-10.4 -24,-24 v -44 c 0,-13.6 10.4,-24 24,-24 13.6,0 24,10.4 24,24 v 44 c 0,13.6 -10.4,24 -24,24 z"
       style="fill:#0dbfba"
       inkscape:connector-curvature="0" /><path
       id="path6"
       d="m 157.6,116 c -8,0 -16,-4 -20.8,-12 L 115.2,66.4 C 108.8,55.2 112.8,40 124,33.6 c 11.2,-6.4 26.4,-2.4 32.8,8.8 L 178.4,80 c 6.4,11.2 2.4,26.4 -8.8,32.8 -3.2,1.6 -8,3.2 -12,3.2 z"
       style="fill:#bbfff2"
       inkscape:connector-curvature="0" /><path
       id="path8"
       d="m 360,465.6 c -8,0 -16,-4 -20.8,-12 L 317.6,416 c -6.4,-11.2 -2.4,-26.4 8.8,-32.8 11.2,-6.4 26.4,-2.4 32.8,8.8 l 21.6,37.6 c 6.4,11.2 2.4,26.4 -8.8,32.8 -4,2.4 -8,3.2 -12,3.2 z"
       style="fill:#1bceb8"
       inkscape:connector-curvature="0" /><path
       id="path10"
       d="m 92,181.6 c -4,0 -8,-0.8 -12,-3.2 L 42.4,156.8 C 31.2,150.4 27.2,135.2 33.6,124 40,112.8 55.2,108.8 66.4,115.2 l 37.6,21.6 c 11.2,6.4 15.2,21.6 8.8,32.8 -4.8,8 -12.8,12 -20.8,12 z"
       style="fill:#e1fff9"
       inkscape:connector-curvature="0" /><path
       id="path12"
       d="m 442.4,384 c -4,0 -8,-0.8 -12,-3.2 L 392,359.2 c -11.2,-6.4 -15.2,-21.6 -8.8,-32.8 6.4,-11.2 21.6,-15.2 32.8,-8.8 l 37.6,21.6 c 11.2,6.4 15.2,21.6 8.8,32.8 -4,8 -12,12 -20,12 z"
       style="fill:#26dbc0"
       inkscape:connector-curvature="0" /><path
       id="path14"
       d="M 68,272 H 24 C 10.4,272 0,261.6 0,248 0,234.4 10.4,224 24,224 h 44 c 13.6,0 24,10.4 24,24 0,13.6 -11.2,24 -24,24 z"
       style="fill:#f3fffd"
       inkscape:connector-curvature="0" /><path
       id="path16"
       d="m 472,272 h -44 c -13.6,0 -24,-10.4 -24,-24 0,-13.6 10.4,-24 24,-24 h 44 c 13.6,0 24,10.4 24,24 0,13.6 -10.4,24 -24,24 z"
       style="fill:#2ee5c6"
       inkscape:connector-curvature="0" /><path
       id="path18"
       d="m 53.6,384 c -8,0 -16,-4 -20.8,-12 -6.4,-11.2 -2.4,-26.4 8.8,-32.8 l 37.6,-21.6 c 11.2,-6.4 26.4,-2.4 32.8,8.8 6.4,11.2 2.4,26.4 -8.8,32.8 l -37.6,21.6 c -3.2,2.4 -7.2,3.2 -12,3.2 z"
       style="fill:#11aeba"
       inkscape:connector-curvature="0" /><path
       id="path20"
       d="m 404,181.6 c -8,0 -16,-4 -20.8,-12 -6.4,-11.2 -2.4,-26.4 8.8,-32.8 l 37.6,-21.6 c 11.2,-6.4 26.4,-2.4 32.8,8.8 6.4,11.2 2.4,26.4 -8.8,32.8 L 416,178.4 c -4,2.4 -8,3.2 -12,3.2 z"
       style="fill:#3bedcb"
       inkscape:connector-curvature="0" /><path
       id="path22"
       d="m 136,465.6 c -4,0 -8,-0.8 -12,-3.2 -11.2,-6.4 -15.2,-21.6 -8.8,-32.8 L 136.8,392 c 6.4,-11.2 21.6,-15.2 32.8,-8.8 11.2,6.4 15.2,21.6 8.8,32.8 l -21.6,37.6 c -4.8,8 -12.8,12 -20.8,12 z"
       style="fill:#0fb8bc"
       inkscape:connector-curvature="0" /><path
       id="path24"
       d="m 338.4,116 c -4,0 -8,-0.8 -12,-3.2 -11.2,-6.4 -15.2,-21.6 -8.8,-32.8 l 21.6,-37.6 c 6.4,-11.2 21.6,-15.2 32.8,-8.8 11.2,6.4 15.2,21.6 8.8,32.8 L 359.2,104 c -4.8,7.2 -12.8,12 -20.8,12 z"
       style="fill:#57f7d8"
       inkscape:connector-curvature="0" /></g><g
     id="g26"
     transform="translate(0,-118.04724)" /><g
     id="g28"
     transform="translate(0,-118.04724)" /><g
     id="g30"
     transform="translate(0,-118.04724)" /><g
     id="g32"
     transform="translate(0,-118.04724)" /><g
     id="g34"
     transform="translate(0,-118.04724)" /><g
     id="g36"
     transform="translate(0,-118.04724)" /><g
     id="g38"
     transform="translate(0,-118.04724)" /><g
     id="g40"
     transform="translate(0,-118.04724)" /><g
     id="g42"
     transform="translate(0,-118.04724)" /><g
     id="g44"
     transform="translate(0,-118.04724)" /><g
     id="g46"
     transform="translate(0,-118.04724)" /><g
     id="g48"
     transform="translate(0,-118.04724)" /><g
     id="g50"
     transform="translate(0,-118.04724)" /><g
     id="g52"
     transform="translate(0,-118.04724)" /><g
     id="g54"
     transform="translate(0,-118.04724)" /></svg>