<?xml version="1.0" encoding="UTF-8" standalone="no"?>
<!-- Generator: Adobe Illustrator 19.0.0, SVG Export Plug-In . SVG Version: 6.00 Build 0)  -->

<svg
   xmlns:dc="http://purl.org/dc/elements/1.1/"
   xmlns:cc="http://creativecommons.org/ns#"
   xmlns:rdf="http://www.w3.org/1999/02/22-rdf-syntax-ns#"
   xmlns:svg="http://www.w3.org/2000/svg"
   xmlns="http://www.w3.org/2000/svg"
   xmlns:sodipodi="http://sodipodi.sourceforge.net/DTD/sodipodi-0.dtd"
   xmlns:inkscape="http://www.inkscape.org/namespaces/inkscape"
   version="1.1"
   id="Layer_1"
   x="0px"
   y="0px"
   viewBox="0 0 370.95499 512"
   xml:space="preserve"
   sodipodi:docname="nopic.svg"
   width="370.95499"
   height="512"
   inkscape:version="0.92.2 (5c3e80d, 2017-08-06)"><metadata
     id="metadata61"><rdf:RDF><cc:Work
         rdf:about=""><dc:format>image/svg+xml</dc:format><dc:type
           rdf:resource="http://purl.org/dc/dcmitype/StillImage" /><dc:title></dc:title></cc:Work></rdf:RDF></metadata><defs
     id="defs59" /><sodipodi:namedview
     pagecolor="#ffffff"
     bordercolor="#666666"
     borderopacity="1"
     objecttolerance="10"
     gridtolerance="10"
     guidetolerance="10"
     inkscape:pageopacity="0"
     inkscape:pageshadow="2"
     inkscape:window-width="1600"
     inkscape:window-height="837"
     id="namedview57"
     showgrid="false"
     inkscape:zoom="0.4609375"
     inkscape:cx="185.477"
     inkscape:cy="256"
     inkscape:window-x="-4"
     inkscape:window-y="-4"
     inkscape:window-maximized="1"
     inkscape:current-layer="Layer_1" /><g
     id="g75"
     transform="translate(-70.523)"><path
       id="path2"
       d="m 334.658,213.481 0.109,-10.729 c 0,-2.982 73.661,82.489 73.661,82.489 12.326,13.871 19.132,31.775 19.132,50.335 v 88.174 c 0,5.974 -4.842,10.823 -10.823,10.823 -5.975,0 -10.818,-4.849 -10.818,-10.823 v -28.352 l -68.527,-66.497 c -1.831,-2.059 -2.62,-4.632 -2.627,-7.189 h -0.103 v -108.23 h -0.004 z"
       style="fill:#cee8fa"
       inkscape:connector-curvature="0" /><path
       id="path4"
       d="m 416.737,448.488 c -13.638,0 -24.733,-11.097 -24.733,-24.737 v -22.466 l -64.301,-62.397 c -0.246,-0.238 -0.481,-0.486 -0.708,-0.74 -3.418,-3.843 -5.512,-8.725 -6.021,-13.947 -0.147,-0.807 -0.225,-1.639 -0.225,-2.488 V 213.914 c -0.006,-0.192 -0.008,-0.383 -0.006,-0.575 l 0.109,-10.699 c 0.063,-7.632 6.333,-13.878 13.979,-13.878 7.005,0 9.732,3.01 22.838,17.473 6.256,6.905 14.781,16.51 25.337,28.553 17.368,19.812 34.672,39.875 35.896,41.293 14.558,16.423 22.576,37.547 22.576,59.497 v 88.174 c -0.001,13.639 -11.1,24.736 -24.741,24.736 z m -68.116,-128.082 65.024,63.101 v -47.93 c 0,-15.163 -5.547,-29.756 -15.62,-41.09 -0.047,-0.051 -0.093,-0.104 -0.139,-0.159 -15.079,-17.493 -34.461,-39.756 -49.31,-56.508 v 82.203 c 0.02,0.125 0.032,0.255 0.045,0.383 z"
       style="fill:#2d527c"
       inkscape:connector-curvature="0" /><path
       id="path6"
       d="m 177.342,213.481 -0.107,-10.729 c 0,-2.982 -73.657,82.489 -73.657,82.489 -12.333,13.871 -19.139,31.775 -19.139,50.335 v 88.174 c 0,5.974 4.842,10.823 10.823,10.823 5.975,0 10.825,-4.849 10.825,-10.823 v -28.352 l 68.52,-66.497 c 1.831,-2.059 2.629,-4.632 2.629,-7.189 h 0.102 v -108.23 h 0.006 v -0.001 z"
       style="fill:#cee8fa"
       inkscape:connector-curvature="0" /><g
       id="g12"><path
         id="path8"
         d="m 95.261,448.488 c -13.641,0 -24.738,-11.097 -24.738,-24.737 v -88.174 c 0,-21.953 8.018,-43.077 22.582,-59.497 1.225,-1.421 18.527,-21.482 35.894,-41.293 10.556,-12.041 19.081,-21.648 25.335,-28.553 13.105,-14.463 15.831,-17.473 22.838,-17.473 7.684,0 13.979,6.306 13.979,13.992 l 0.104,10.591 c 0.003,0.175 0.001,0.351 -0.004,0.526 v 107.841 c 0,0.845 -0.075,1.673 -0.22,2.476 -0.504,5.221 -2.599,10.108 -6.027,13.96 -0.227,0.256 -0.462,0.502 -0.708,0.739 l -64.295,62.399 v 22.466 c -0.001,13.64 -11.099,24.737 -24.74,24.737 z m 68.158,-210.666 c -14.849,16.753 -34.226,39.011 -49.303,56.504 -0.047,0.054 -0.093,0.109 -0.142,0.161 -10.075,11.331 -15.624,25.924 -15.624,41.087 v 47.935 l 65.027,-63.108 c 0.011,-0.125 0.025,-0.25 0.039,-0.374 v -82.205 z"
         style="fill:#2d527c"
         inkscape:connector-curvature="0" /><path
         id="path10"
         d="M 308.437,396.354 H 203.562 c -22.131,0 -40.137,-16.67 -40.137,-37.163 V 139.057 c 0,-10.571 3.052,-20.994 8.828,-30.142 L 233.299,12.177 C 238.102,4.557 246.586,0.003 255.99,0 c 0.003,0 0.006,0 0.008,0 9.404,0 17.889,4.552 22.701,12.177 l 61.04,96.734 c 5.775,9.134 8.832,19.561 8.832,30.139 0,7.684 -6.231,13.915 -13.915,13.915 -7.684,0 -13.915,-6.231 -13.915,-13.915 0,-5.306 -1.567,-10.588 -4.531,-15.276 l -60.212,-95.421 -60.212,95.415 c -2.965,4.696 -4.532,9.983 -4.532,15.287 v 220.133 c 0,5.06 5.636,9.333 12.307,9.333 h 104.875 c 6.67,0 12.305,-4.273 12.305,-9.333 V 203.122 c 0,-7.684 6.231,-13.915 13.915,-13.915 7.684,0 13.915,6.231 13.915,13.915 V 359.19 c 10e-4,20.492 -18.002,37.164 -40.134,37.164 z"
         style="fill:#2d527c"
         inkscape:connector-curvature="0" /></g><path
       id="path14"
       d="m 299.525,436.717 c 0,24.038 -43.525,61.366 -43.525,61.366 0,0 -43.525,-37.328 -43.525,-61.366 0,-24.039 19.487,-43.525 43.525,-43.525 24.038,0 43.525,19.487 43.525,43.525 z"
       style="fill:#cee8fa"
       inkscape:connector-curvature="0" /><g
       id="g20"><path
         id="path16"
         d="m 256,512 c -3.226,0 -6.454,-1.117 -9.059,-3.352 -8.081,-6.928 -48.383,-42.962 -48.383,-71.929 0,-31.674 25.768,-57.441 57.441,-57.441 31.673,0 57.441,25.768 57.441,57.441 0,28.967 -40.303,65.001 -48.383,71.929 C 262.452,510.884 259.226,512 256,512 Z m 0,-104.893 c -16.327,0 -29.61,13.283 -29.61,29.61 0,9.429 15.194,28.292 29.61,42.445 14.416,-14.153 29.61,-33.017 29.61,-42.445 0,-16.326 -13.283,-29.61 -29.61,-29.61 z"
         style="fill:#2d527c"
         inkscape:connector-curvature="0" /><path
         id="path18"
         d="m 256,221.213 c -26.855,0 -48.703,-21.848 -48.703,-48.703 0,-26.855 21.848,-48.703 48.703,-48.703 7.684,0 13.915,6.231 13.915,13.915 0,7.684 -6.231,13.915 -13.915,13.915 -11.509,0 -20.873,9.364 -20.873,20.873 0,11.509 9.364,20.873 20.873,20.873 11.509,0 20.873,-9.364 20.873,-20.873 0,-7.684 6.231,-13.915 13.915,-13.915 7.684,0 13.915,6.231 13.915,13.915 0,26.854 -21.848,48.703 -48.703,48.703 z"
         style="fill:#2d527c"
         inkscape:connector-curvature="0" /></g><path
       id="path22"
       d="m 177.342,303.776 v 55.414 c 0,12.842 11.739,23.248 26.22,23.248 h 104.875 c 14.482,0 26.22,-10.404 26.22,-23.248 v -55.414 z"
       style="fill:#cee8fa"
       inkscape:connector-curvature="0" /><path
       id="path24"
       d="M 308.437,396.354 H 203.562 c -22.131,0 -40.137,-16.67 -40.137,-37.163 v -55.413 c 0,-7.684 6.231,-13.915 13.915,-13.915 h 157.318 c 7.684,0 13.915,6.231 13.915,13.915 v 55.413 c 0.001,20.491 -18.004,37.163 -40.136,37.163 z M 191.255,317.692 v 41.498 c 0,5.06 5.636,9.333 12.307,9.333 h 104.875 c 6.671,0 12.307,-4.273 12.307,-9.333 v -41.498 z"
       style="fill:#2d527c"
       inkscape:connector-curvature="0" /></g><g
     id="g26"
     transform="translate(-70.523)" /><g
     id="g28"
     transform="translate(-70.523)" /><g
     id="g30"
     transform="translate(-70.523)" /><g
     id="g32"
     transform="translate(-70.523)" /><g
     id="g34"
     transform="translate(-70.523)" /><g
     id="g36"
     transform="translate(-70.523)" /><g
     id="g38"
     transform="translate(-70.523)" /><g
     id="g40"
     transform="translate(-70.523)" /><g
     id="g42"
     transform="translate(-70.523)" /><g
     id="g44"
     transform="translate(-70.523)" /><g
     id="g46"
     transform="translate(-70.523)" /><g
     id="g48"
     transform="translate(-70.523)" /><g
     id="g50"
     transform="translate(-70.523)" /><g
     id="g52"
     transform="translate(-70.523)" /><g
     id="g54"
     transform="translate(-70.523)" /></svg>