<?xml version="1.0" encoding="UTF-8" standalone="no"?>
<!-- Generator: Adobe Illustrator 19.0.0, SVG Export Plug-In . SVG Version: 6.00 Build 0)  -->

<svg
   xmlns:dc="http://purl.org/dc/elements/1.1/"
   xmlns:cc="http://creativecommons.org/ns#"
   xmlns:rdf="http://www.w3.org/1999/02/22-rdf-syntax-ns#"
   xmlns:svg="http://www.w3.org/2000/svg"
   xmlns="http://www.w3.org/2000/svg"
   xmlns:sodipodi="http://sodipodi.sourceforge.net/DTD/sodipodi-0.dtd"
   xmlns:inkscape="http://www.inkscape.org/namespaces/inkscape"
   version="1.1"
   id="Layer_1"
   x="0px"
   y="0px"
   viewBox="0 0 377.95276 377.95276"
   xml:space="preserve"
   sodipodi:docname="spinner-dots.svg"
   width="377.95276"
   height="377.95276"
   inkscape:version="0.92.2 (5c3e80d, 2017-08-06)"><metadata
     id="metadata61"><rdf:RDF><cc:Work
         rdf:about=""><dc:format>image/svg+xml</dc:format><dc:type
           rdf:resource="http://purl.org/dc/dcmitype/StillImage" /></cc:Work></rdf:RDF></metadata><defs
     id="defs59" /><sodipodi:namedview
     pagecolor="#ffffff"
     bordercolor="#666666"
     borderopacity="1"
     objecttolerance="10"
     gridtolerance="10"
     guidetolerance="10"
     inkscape:pageopacity="0"
     inkscape:pageshadow="2"
     inkscape:window-width="1600"
     inkscape:window-height="837"
     id="namedview57"
     showgrid="false"
     inkscape:zoom="0.47580645"
     inkscape:cx="248"
     inkscape:cy="247.99999"
     inkscape:window-x="-4"
     inkscape:window-y="-4"
     inkscape:window-maximized="1"
     inkscape:current-layer="Layer_1" /><g
     id="g883"
     transform="scale(0.76200152)"><circle
       id="circle2"
       r="24"
       cy="24"
       cx="248"
       style="fill:#383a39" /><circle
       id="circle4"
       r="24"
       cy="472"
       cx="248"
       style="fill:#eceeee" /><circle
       id="circle6"
       r="24"
       cy="53.599998"
       cx="136"
       style="fill:#77807f" /><path
       inkscape:connector-curvature="0"
       id="path8"
       d="m 380.8,430.4 c 6.4,11.2 2.4,25.6 -8.8,32.8 -11.2,6.4 -25.6,2.4 -32.8,-8.8 -6.4,-11.2 -2.4,-25.6 8.8,-32.8 11.2,-6.4 26.4,-2.4 32.8,8.8 z"
       style="fill:#f2f4f4" /><path
       inkscape:connector-curvature="0"
       id="path10"
       d="M 65.6,115.2 C 76.8,121.6 80.8,136 74.4,148 68,159.2 53.6,163.2 41.6,156.8 30.4,150.4 26.4,136 32.8,124 c 6.4,-12 21.6,-15.2 32.8,-8.8 z"
       style="fill:#9faaa9" /><path
       inkscape:connector-curvature="0"
       id="path12"
       d="m 454.4,339.2 c 11.2,6.4 15.2,20.8 8.8,32.8 -6.4,11.2 -20.8,15.2 -32.8,8.8 -11.2,-6.4 -15.2,-20.8 -8.8,-32.8 6.4,-11.2 20.8,-15.2 32.8,-8.8 z"
       style="fill:#f2f7f7" /><circle
       id="circle14"
       r="24"
       cy="248"
       cx="24"
       style="fill:#b2bbba" /><circle
       id="circle16"
       r="24"
       cy="248"
       cx="472"
       style="fill:#ffffff" /><path
       inkscape:connector-curvature="0"
       id="path18"
       d="m 41.6,339.2 c 11.2,-6.4 25.6,-2.4 32.8,8.8 6.4,11.2 2.4,25.6 -8.8,32.8 -11.2,6.4 -25.6,2.4 -32.8,-8.8 -7.2,-11.2 -2.4,-25.6 8.8,-32.8 z"
       style="fill:#c5cccb" /><path
       inkscape:connector-curvature="0"
       id="path20"
       d="m 430.4,115.2 c 11.2,-6.4 25.6,-2.4 32.8,8.8 6.4,11.2 2.4,25.6 -8.8,32.8 -11.2,6.4 -25.6,2.4 -32.8,-8.8 -6.4,-11.2 -2.4,-26.4 8.8,-32.8 z" /><path
       inkscape:connector-curvature="0"
       id="path22"
       d="m 115.2,430.4 c 6.4,-11.2 20.8,-15.2 32.8,-8.8 11.2,6.4 15.2,20.8 8.8,32.8 -6.4,11.2 -20.8,15.2 -32.8,8.8 -11.2,-7.2 -15.2,-21.6 -8.8,-32.8 z"
       style="fill:#d9dddd" /><path
       inkscape:connector-curvature="0"
       id="path24"
       d="m 339.2,41.6 c 6.4,-11.2 20.8,-15.2 32.8,-8.8 11.2,6.4 15.2,20.8 8.8,32.8 C 374.4,76.8 360,80.8 348,74.4 336.8,68 332.8,53.6 339.2,41.6 Z"
       style="fill:#111111" /></g><g
     id="g26"
     transform="translate(0,-118.04724)" /><g
     id="g28"
     transform="translate(0,-118.04724)" /><g
     id="g30"
     transform="translate(0,-118.04724)" /><g
     id="g32"
     transform="translate(0,-118.04724)" /><g
     id="g34"
     transform="translate(0,-118.04724)" /><g
     id="g36"
     transform="translate(0,-118.04724)" /><g
     id="g38"
     transform="translate(0,-118.04724)" /><g
     id="g40"
     transform="translate(0,-118.04724)" /><g
     id="g42"
     transform="translate(0,-118.04724)" /><g
     id="g44"
     transform="translate(0,-118.04724)" /><g
     id="g46"
     transform="translate(0,-118.04724)" /><g
     id="g48"
     transform="translate(0,-118.04724)" /><g
     id="g50"
     transform="translate(0,-118.04724)" /><g
     id="g52"
     transform="translate(0,-118.04724)" /><g
     id="g54"
     transform="translate(0,-118.04724)" /></svg>